<mxfile host="Electron" modified="2023-08-29T13:15:38.219Z" agent="Mozilla/5.0 (Windows NT 10.0; Win64; x64) AppleWebKit/537.36 (KHTML, like Gecko) draw.io/21.6.8 Chrome/114.0.5735.289 Electron/25.5.0 Safari/537.36" etag="FnHLGOi2XBYmp0hN0bhM" version="21.6.8" type="device">
  <diagram name="Page-1" id="6133507b-19e7-1e82-6fc7-422aa6c4b21f">
    <mxGraphModel dx="2759" dy="995" grid="1" gridSize="10" guides="1" tooltips="1" connect="1" arrows="1" fold="1" page="1" pageScale="1" pageWidth="1100" pageHeight="850" background="none" math="0" shadow="0">
      <root>
        <mxCell id="0" />
        <mxCell id="1" style="" parent="0" />
        <mxCell id="dSAkTDeeCPNXXW4GaVeO-8" value="" style="rounded=0;whiteSpace=wrap;html=1;strokeColor=#F2FFF5;strokeWidth=5;fontFamily=Helvetica;fontSize=12;fontColor=default;fillColor=none;" parent="1" vertex="1">
          <mxGeometry x="-960" y="80" width="440" height="250" as="geometry" />
        </mxCell>
        <mxCell id="dSAkTDeeCPNXXW4GaVeO-7" value="" style="rounded=0;whiteSpace=wrap;html=1;strokeColor=#F2FFF5;strokeWidth=5;fontFamily=Helvetica;fontSize=12;fontColor=default;fillColor=none;" parent="1" vertex="1">
          <mxGeometry x="-480" y="80" width="440" height="1120" as="geometry" />
        </mxCell>
        <mxCell id="dSAkTDeeCPNXXW4GaVeO-25" value="" style="rounded=0;whiteSpace=wrap;html=1;strokeColor=#F2FFF5;strokeWidth=5;fontFamily=Helvetica;fontSize=12;fontColor=default;fillColor=none;" parent="1" vertex="1">
          <mxGeometry x="320" y="80" width="720" height="600" as="geometry" />
        </mxCell>
        <mxCell id="dSAkTDeeCPNXXW4GaVeO-111" value="" style="rounded=0;whiteSpace=wrap;html=1;strokeColor=#F2FFF5;strokeWidth=5;fontFamily=Helvetica;fontSize=12;fontColor=default;fillColor=none;movable=1;resizable=1;rotatable=1;deletable=1;editable=1;locked=0;connectable=1;" parent="1" vertex="1">
          <mxGeometry x="320" y="720" width="440" height="400" as="geometry" />
        </mxCell>
        <mxCell id="g-lxSQZetbMV3VEQ5jTI-6" value="Mega Sensor Shield V2.0" style="html=1;whiteSpace=wrap;strokeWidth=4;" vertex="1" parent="1">
          <mxGeometry x="800" y="70" width="200" height="20" as="geometry" />
        </mxCell>
        <mxCell id="g-lxSQZetbMV3VEQ5jTI-18" value="" style="endArrow=none;dashed=1;html=1;dashPattern=1 3;strokeWidth=2;rounded=0;entryX=0.611;entryY=0;entryDx=0;entryDy=0;entryPerimeter=0;exitX=0.611;exitY=1;exitDx=0;exitDy=0;exitPerimeter=0;" edge="1" parent="1" source="dSAkTDeeCPNXXW4GaVeO-25" target="dSAkTDeeCPNXXW4GaVeO-25">
          <mxGeometry width="50" height="50" relative="1" as="geometry">
            <mxPoint x="820" y="690" as="sourcePoint" />
            <mxPoint x="1210" y="380" as="targetPoint" />
            <Array as="points">
              <mxPoint x="760" y="350" />
            </Array>
          </mxGeometry>
        </mxCell>
        <mxCell id="g-lxSQZetbMV3VEQ5jTI-26" style="edgeStyle=orthogonalEdgeStyle;rounded=0;orthogonalLoop=1;jettySize=auto;html=1;exitX=1;exitY=1;exitDx=0;exitDy=0;entryX=0.986;entryY=0.999;entryDx=0;entryDy=0;entryPerimeter=0;" edge="1" parent="1" source="dSAkTDeeCPNXXW4GaVeO-25" target="dSAkTDeeCPNXXW4GaVeO-25">
          <mxGeometry relative="1" as="geometry" />
        </mxCell>
        <mxCell id="g-lxSQZetbMV3VEQ5jTI-86" style="edgeStyle=orthogonalEdgeStyle;rounded=0;orthogonalLoop=1;jettySize=auto;html=1;strokeWidth=4;endArrow=block;endFill=1;fillColor=#60a917;strokeColor=#2D7600;startArrow=block;startFill=1;" edge="1" parent="1">
          <mxGeometry relative="1" as="geometry">
            <mxPoint x="-260" y="80" as="sourcePoint" />
            <mxPoint x="540" y="80" as="targetPoint" />
            <Array as="points">
              <mxPoint x="-260" y="20" />
              <mxPoint x="540" y="20" />
            </Array>
          </mxGeometry>
        </mxCell>
        <mxCell id="g-lxSQZetbMV3VEQ5jTI-98" value="ttyUSB1" style="edgeLabel;html=1;align=center;verticalAlign=middle;resizable=0;points=[];fontStyle=1" vertex="1" connectable="0" parent="g-lxSQZetbMV3VEQ5jTI-86">
          <mxGeometry x="0.0264" y="-1" relative="1" as="geometry">
            <mxPoint as="offset" />
          </mxGeometry>
        </mxCell>
        <mxCell id="dSAkTDeeCPNXXW4GaVeO-23" value="Structure Blocks" parent="0" />
        <mxCell id="dSAkTDeeCPNXXW4GaVeO-26" value="DataCollector" style="swimlane;html=1;fontStyle=1;align=center;verticalAlign=top;childLayout=stackLayout;horizontal=1;startSize=30;horizontalStack=0;resizeParent=1;resizeLast=0;collapsible=1;marginBottom=0;swimlaneFillColor=#ffffff;rounded=0;shadow=0;comic=0;labelBackgroundColor=none;strokeWidth=1;fillColor=#008a00;fontFamily=Verdana;fontSize=12;fontColor=#ffffff;strokeColor=#005700;" parent="dSAkTDeeCPNXXW4GaVeO-23" vertex="1">
          <mxGeometry x="360" y="270" width="160" height="150" as="geometry" />
        </mxCell>
        <mxCell id="dSAkTDeeCPNXXW4GaVeO-27" value="+ field: type" style="text;html=1;strokeColor=none;fillColor=default;align=left;verticalAlign=top;spacingLeft=4;spacingRight=4;whiteSpace=wrap;overflow=hidden;rotatable=0;points=[[0,0.5],[1,0.5]];portConstraint=eastwest;" parent="dSAkTDeeCPNXXW4GaVeO-26" vertex="1">
          <mxGeometry y="30" width="160" height="30" as="geometry" />
        </mxCell>
        <mxCell id="dSAkTDeeCPNXXW4GaVeO-28" value="+ field: type" style="text;html=1;strokeColor=none;fillColor=default;align=left;verticalAlign=top;spacingLeft=4;spacingRight=4;whiteSpace=wrap;overflow=hidden;rotatable=0;points=[[0,0.5],[1,0.5]];portConstraint=eastwest;" parent="dSAkTDeeCPNXXW4GaVeO-26" vertex="1">
          <mxGeometry y="60" width="160" height="30" as="geometry" />
        </mxCell>
        <mxCell id="dSAkTDeeCPNXXW4GaVeO-29" value="+ method(type): type" style="text;html=1;strokeColor=none;fillColor=default;align=left;verticalAlign=top;spacingLeft=4;spacingRight=4;whiteSpace=wrap;overflow=hidden;rotatable=0;points=[[0,0.5],[1,0.5]];portConstraint=eastwest;" parent="dSAkTDeeCPNXXW4GaVeO-26" vertex="1">
          <mxGeometry y="90" width="160" height="30" as="geometry" />
        </mxCell>
        <mxCell id="dSAkTDeeCPNXXW4GaVeO-30" value="+ method(type): type" style="text;html=1;strokeColor=none;fillColor=default;align=left;verticalAlign=top;spacingLeft=4;spacingRight=4;whiteSpace=wrap;overflow=hidden;rotatable=0;points=[[0,0.5],[1,0.5]];portConstraint=eastwest;" parent="dSAkTDeeCPNXXW4GaVeO-26" vertex="1">
          <mxGeometry y="120" width="160" height="30" as="geometry" />
        </mxCell>
        <mxCell id="dSAkTDeeCPNXXW4GaVeO-32" value="Arduino MEGA (mcu_code)" style="swimlane;html=1;fontStyle=1;align=center;verticalAlign=top;childLayout=stackLayout;horizontal=1;startSize=30;horizontalStack=0;resizeParent=1;resizeLast=0;collapsible=1;marginBottom=0;swimlaneFillColor=#ffffff;rounded=0;shadow=0;comic=0;labelBackgroundColor=none;strokeWidth=1;fillColor=#0050ef;fontFamily=Verdana;fontSize=12;fontColor=#ffffff;strokeColor=#001DBC;" parent="dSAkTDeeCPNXXW4GaVeO-23" vertex="1">
          <mxGeometry x="360" y="120" width="360" height="150" as="geometry">
            <mxRectangle x="360" y="120" width="130" height="30" as="alternateBounds" />
          </mxGeometry>
        </mxCell>
        <mxCell id="dSAkTDeeCPNXXW4GaVeO-33" value="+ co2: float32" style="text;html=1;strokeColor=none;fillColor=default;align=left;verticalAlign=top;spacingLeft=4;spacingRight=4;whiteSpace=wrap;overflow=hidden;rotatable=0;points=[[0,0.5],[1,0.5]];portConstraint=eastwest;" parent="dSAkTDeeCPNXXW4GaVeO-32" vertex="1">
          <mxGeometry y="30" width="360" height="30" as="geometry" />
        </mxCell>
        <mxCell id="dSAkTDeeCPNXXW4GaVeO-34" value="+ ph: float32" style="text;html=1;strokeColor=none;fillColor=default;align=left;verticalAlign=top;spacingLeft=4;spacingRight=4;whiteSpace=wrap;overflow=hidden;rotatable=0;points=[[0,0.5],[1,0.5]];portConstraint=eastwest;" parent="dSAkTDeeCPNXXW4GaVeO-32" vertex="1">
          <mxGeometry y="60" width="360" height="30" as="geometry" />
        </mxCell>
        <mxCell id="dSAkTDeeCPNXXW4GaVeO-35" value="+ method(type): int" style="text;html=1;strokeColor=none;fillColor=default;align=left;verticalAlign=top;spacingLeft=4;spacingRight=4;whiteSpace=wrap;overflow=hidden;rotatable=0;points=[[0,0.5],[1,0.5]];portConstraint=eastwest;" parent="dSAkTDeeCPNXXW4GaVeO-32" vertex="1">
          <mxGeometry y="90" width="360" height="30" as="geometry" />
        </mxCell>
        <mxCell id="dSAkTDeeCPNXXW4GaVeO-36" value="+ method(type): int" style="text;html=1;strokeColor=none;fillColor=default;align=left;verticalAlign=top;spacingLeft=4;spacingRight=4;whiteSpace=wrap;overflow=hidden;rotatable=0;points=[[0,0.5],[1,0.5]];portConstraint=eastwest;" parent="dSAkTDeeCPNXXW4GaVeO-32" vertex="1">
          <mxGeometry y="120" width="360" height="30" as="geometry" />
        </mxCell>
        <mxCell id="dSAkTDeeCPNXXW4GaVeO-40" value="RelayController" style="swimlane;html=1;fontStyle=1;align=center;verticalAlign=top;childLayout=stackLayout;horizontal=1;startSize=30;horizontalStack=0;resizeParent=1;resizeLast=0;collapsible=1;marginBottom=0;swimlaneFillColor=#ffffff;rounded=0;shadow=0;comic=0;labelBackgroundColor=none;strokeWidth=1;fillColor=#008a00;fontFamily=Verdana;fontSize=12;fontColor=#ffffff;strokeColor=#005700;" parent="dSAkTDeeCPNXXW4GaVeO-23" vertex="1">
          <mxGeometry x="520" y="270" width="200" height="150" as="geometry" />
        </mxCell>
        <mxCell id="dSAkTDeeCPNXXW4GaVeO-41" value="+ field: type" style="text;html=1;strokeColor=none;fillColor=default;align=left;verticalAlign=top;spacingLeft=4;spacingRight=4;whiteSpace=wrap;overflow=hidden;rotatable=0;points=[[0,0.5],[1,0.5]];portConstraint=eastwest;" parent="dSAkTDeeCPNXXW4GaVeO-40" vertex="1">
          <mxGeometry y="30" width="200" height="30" as="geometry" />
        </mxCell>
        <mxCell id="dSAkTDeeCPNXXW4GaVeO-42" value="+ field: type" style="text;html=1;strokeColor=none;fillColor=default;align=left;verticalAlign=top;spacingLeft=4;spacingRight=4;whiteSpace=wrap;overflow=hidden;rotatable=0;points=[[0,0.5],[1,0.5]];portConstraint=eastwest;" parent="dSAkTDeeCPNXXW4GaVeO-40" vertex="1">
          <mxGeometry y="60" width="200" height="30" as="geometry" />
        </mxCell>
        <mxCell id="dSAkTDeeCPNXXW4GaVeO-43" value="+ method(type): type" style="text;html=1;strokeColor=none;fillColor=default;align=left;verticalAlign=top;spacingLeft=4;spacingRight=4;whiteSpace=wrap;overflow=hidden;rotatable=0;points=[[0,0.5],[1,0.5]];portConstraint=eastwest;" parent="dSAkTDeeCPNXXW4GaVeO-40" vertex="1">
          <mxGeometry y="90" width="200" height="30" as="geometry" />
        </mxCell>
        <mxCell id="dSAkTDeeCPNXXW4GaVeO-44" value="+ method(type): type" style="text;html=1;strokeColor=none;fillColor=default;align=left;verticalAlign=top;spacingLeft=4;spacingRight=4;whiteSpace=wrap;overflow=hidden;rotatable=0;points=[[0,0.5],[1,0.5]];portConstraint=eastwest;" parent="dSAkTDeeCPNXXW4GaVeO-40" vertex="1">
          <mxGeometry y="120" width="200" height="30" as="geometry" />
        </mxCell>
        <mxCell id="dSAkTDeeCPNXXW4GaVeO-46" value="DataBuffer" style="swimlane;html=1;fontStyle=1;align=center;verticalAlign=top;childLayout=stackLayout;horizontal=1;startSize=30;horizontalStack=0;resizeParent=1;resizeLast=0;collapsible=1;marginBottom=0;swimlaneFillColor=#ffffff;rounded=0;shadow=0;comic=0;labelBackgroundColor=none;strokeWidth=1;fillColor=#008a00;fontFamily=Verdana;fontSize=12;fontColor=#ffffff;strokeColor=#005700;" parent="dSAkTDeeCPNXXW4GaVeO-23" vertex="1">
          <mxGeometry x="360" y="420" width="360" height="90" as="geometry" />
        </mxCell>
        <mxCell id="dSAkTDeeCPNXXW4GaVeO-47" value="+ field: type" style="text;html=1;strokeColor=none;fillColor=default;align=left;verticalAlign=top;spacingLeft=4;spacingRight=4;whiteSpace=wrap;overflow=hidden;rotatable=0;points=[[0,0.5],[1,0.5]];portConstraint=eastwest;" parent="dSAkTDeeCPNXXW4GaVeO-46" vertex="1">
          <mxGeometry y="30" width="360" height="30" as="geometry" />
        </mxCell>
        <mxCell id="dSAkTDeeCPNXXW4GaVeO-48" value="+ field: type" style="text;html=1;strokeColor=none;fillColor=default;align=left;verticalAlign=top;spacingLeft=4;spacingRight=4;whiteSpace=wrap;overflow=hidden;rotatable=0;points=[[0,0.5],[1,0.5]];portConstraint=eastwest;" parent="dSAkTDeeCPNXXW4GaVeO-46" vertex="1">
          <mxGeometry y="60" width="360" height="30" as="geometry" />
        </mxCell>
        <mxCell id="dSAkTDeeCPNXXW4GaVeO-80" value="DataBase" style="swimlane;html=1;fontStyle=1;align=center;verticalAlign=top;childLayout=stackLayout;horizontal=1;startSize=31;horizontalStack=0;resizeParent=1;resizeLast=0;collapsible=1;marginBottom=0;swimlaneFillColor=#ffffff;rounded=0;shadow=0;comic=0;labelBackgroundColor=none;strokeWidth=1;fillColor=#008a00;fontFamily=Verdana;fontSize=12;fontColor=#ffffff;strokeColor=#005700;" parent="dSAkTDeeCPNXXW4GaVeO-23" vertex="1">
          <mxGeometry x="-430" y="1020" width="350" height="150" as="geometry">
            <mxRectangle x="-420" y="290" width="100" height="31" as="alternateBounds" />
          </mxGeometry>
        </mxCell>
        <mxCell id="dSAkTDeeCPNXXW4GaVeO-81" value="+ field: type" style="text;html=1;strokeColor=none;fillColor=default;align=left;verticalAlign=top;spacingLeft=4;spacingRight=4;whiteSpace=wrap;overflow=hidden;rotatable=0;points=[[0,0.5],[1,0.5]];portConstraint=eastwest;" parent="dSAkTDeeCPNXXW4GaVeO-80" vertex="1">
          <mxGeometry y="31" width="350" height="29" as="geometry" />
        </mxCell>
        <mxCell id="dSAkTDeeCPNXXW4GaVeO-82" value="+ field: type" style="text;html=1;strokeColor=none;fillColor=default;align=left;verticalAlign=top;spacingLeft=4;spacingRight=4;whiteSpace=wrap;overflow=hidden;rotatable=0;points=[[0,0.5],[1,0.5]];portConstraint=eastwest;" parent="dSAkTDeeCPNXXW4GaVeO-80" vertex="1">
          <mxGeometry y="60" width="350" height="30" as="geometry" />
        </mxCell>
        <mxCell id="dSAkTDeeCPNXXW4GaVeO-83" value="+ method(type): type" style="text;html=1;strokeColor=none;fillColor=default;align=left;verticalAlign=top;spacingLeft=4;spacingRight=4;whiteSpace=wrap;overflow=hidden;rotatable=0;points=[[0,0.5],[1,0.5]];portConstraint=eastwest;" parent="dSAkTDeeCPNXXW4GaVeO-80" vertex="1">
          <mxGeometry y="90" width="350" height="30" as="geometry" />
        </mxCell>
        <mxCell id="dSAkTDeeCPNXXW4GaVeO-84" value="+ method(type): type" style="text;html=1;strokeColor=none;fillColor=default;align=left;verticalAlign=top;spacingLeft=4;spacingRight=4;whiteSpace=wrap;overflow=hidden;rotatable=0;points=[[0,0.5],[1,0.5]];portConstraint=eastwest;" parent="dSAkTDeeCPNXXW4GaVeO-80" vertex="1">
          <mxGeometry y="120" width="350" height="30" as="geometry" />
        </mxCell>
        <mxCell id="dSAkTDeeCPNXXW4GaVeO-86" value="NVIDIA Jetson (main)" style="swimlane;html=1;fontStyle=1;align=center;verticalAlign=top;childLayout=stackLayout;horizontal=1;startSize=30;horizontalStack=0;resizeParent=1;resizeLast=0;collapsible=1;marginBottom=0;swimlaneFillColor=#ffffff;rounded=0;shadow=0;comic=0;labelBackgroundColor=none;strokeWidth=1;fillColor=#0050ef;fontFamily=Verdana;fontSize=12;fontColor=#ffffff;strokeColor=#001DBC;" parent="dSAkTDeeCPNXXW4GaVeO-23" vertex="1">
          <mxGeometry x="-440" y="120" width="360" height="240" as="geometry" />
        </mxCell>
        <mxCell id="dSAkTDeeCPNXXW4GaVeO-87" value="+ field: type" style="text;html=1;strokeColor=none;fillColor=default;align=left;verticalAlign=top;spacingLeft=4;spacingRight=4;whiteSpace=wrap;overflow=hidden;rotatable=0;points=[[0,0.5],[1,0.5]];portConstraint=eastwest;" parent="dSAkTDeeCPNXXW4GaVeO-86" vertex="1">
          <mxGeometry y="30" width="360" height="30" as="geometry" />
        </mxCell>
        <mxCell id="dSAkTDeeCPNXXW4GaVeO-88" value="+ field: type" style="text;html=1;strokeColor=none;fillColor=default;align=left;verticalAlign=top;spacingLeft=4;spacingRight=4;whiteSpace=wrap;overflow=hidden;rotatable=0;points=[[0,0.5],[1,0.5]];portConstraint=eastwest;" parent="dSAkTDeeCPNXXW4GaVeO-86" vertex="1">
          <mxGeometry y="60" width="360" height="30" as="geometry" />
        </mxCell>
        <mxCell id="dSAkTDeeCPNXXW4GaVeO-89" value="+ method(type): type" style="text;html=1;strokeColor=none;fillColor=default;align=left;verticalAlign=top;spacingLeft=4;spacingRight=4;whiteSpace=wrap;overflow=hidden;rotatable=0;points=[[0,0.5],[1,0.5]];portConstraint=eastwest;" parent="dSAkTDeeCPNXXW4GaVeO-86" vertex="1">
          <mxGeometry y="90" width="360" height="30" as="geometry" />
        </mxCell>
        <mxCell id="dSAkTDeeCPNXXW4GaVeO-91" value="serial_port_A: str" style="text;html=1;strokeColor=none;fillColor=default;align=left;verticalAlign=top;spacingLeft=4;spacingRight=4;whiteSpace=wrap;overflow=hidden;rotatable=0;points=[[0,0.5],[1,0.5]];portConstraint=eastwest;" parent="dSAkTDeeCPNXXW4GaVeO-86" vertex="1">
          <mxGeometry y="120" width="360" height="30" as="geometry" />
        </mxCell>
        <mxCell id="g-lxSQZetbMV3VEQ5jTI-92" value="serial_port_A_baudrate : int" style="text;html=1;strokeColor=none;fillColor=default;align=left;verticalAlign=top;spacingLeft=4;spacingRight=4;whiteSpace=wrap;overflow=hidden;rotatable=0;points=[[0,0.5],[1,0.5]];portConstraint=eastwest;" vertex="1" parent="dSAkTDeeCPNXXW4GaVeO-86">
          <mxGeometry y="150" width="360" height="30" as="geometry" />
        </mxCell>
        <mxCell id="g-lxSQZetbMV3VEQ5jTI-91" value="serial_port_B : str" style="text;html=1;strokeColor=none;fillColor=default;align=left;verticalAlign=top;spacingLeft=4;spacingRight=4;whiteSpace=wrap;overflow=hidden;rotatable=0;points=[[0,0.5],[1,0.5]];portConstraint=eastwest;" vertex="1" parent="dSAkTDeeCPNXXW4GaVeO-86">
          <mxGeometry y="180" width="360" height="30" as="geometry" />
        </mxCell>
        <mxCell id="dSAkTDeeCPNXXW4GaVeO-90" value="serial_ port_B_boudrate: int" style="text;html=1;strokeColor=none;fillColor=default;align=left;verticalAlign=top;spacingLeft=4;spacingRight=4;whiteSpace=wrap;overflow=hidden;rotatable=0;points=[[0,0.5],[1,0.5]];portConstraint=eastwest;" parent="dSAkTDeeCPNXXW4GaVeO-86" vertex="1">
          <mxGeometry y="210" width="360" height="30" as="geometry" />
        </mxCell>
        <mxCell id="dSAkTDeeCPNXXW4GaVeO-112" value="GRBL" style="swimlane;html=1;fontStyle=1;align=center;verticalAlign=top;childLayout=stackLayout;horizontal=1;startSize=26;horizontalStack=0;resizeParent=1;resizeLast=0;collapsible=1;marginBottom=0;swimlaneFillColor=#ffffff;rounded=0;shadow=0;comic=0;labelBackgroundColor=none;strokeWidth=1;fillColor=#0050ef;fontFamily=Verdana;fontSize=12;fontColor=#ffffff;strokeColor=#001DBC;" parent="dSAkTDeeCPNXXW4GaVeO-23" vertex="1">
          <mxGeometry x="360" y="760" width="360" height="130" as="geometry" />
        </mxCell>
        <mxCell id="dSAkTDeeCPNXXW4GaVeO-114" value="+ field: int" style="text;html=1;strokeColor=none;fillColor=default;align=left;verticalAlign=top;spacingLeft=4;spacingRight=4;whiteSpace=wrap;overflow=hidden;rotatable=0;points=[[0,0.5],[1,0.5]];portConstraint=eastwest;" parent="dSAkTDeeCPNXXW4GaVeO-112" vertex="1">
          <mxGeometry y="26" width="360" height="26" as="geometry" />
        </mxCell>
        <mxCell id="dSAkTDeeCPNXXW4GaVeO-115" value="+ method(type): int" style="text;html=1;strokeColor=none;fillColor=default;align=left;verticalAlign=top;spacingLeft=4;spacingRight=4;whiteSpace=wrap;overflow=hidden;rotatable=0;points=[[0,0.5],[1,0.5]];portConstraint=eastwest;" parent="dSAkTDeeCPNXXW4GaVeO-112" vertex="1">
          <mxGeometry y="52" width="360" height="26" as="geometry" />
        </mxCell>
        <mxCell id="dSAkTDeeCPNXXW4GaVeO-116" value="+ method(type): int" style="text;html=1;strokeColor=none;fillColor=default;align=left;verticalAlign=top;spacingLeft=4;spacingRight=4;whiteSpace=wrap;overflow=hidden;rotatable=0;points=[[0,0.5],[1,0.5]];portConstraint=eastwest;" parent="dSAkTDeeCPNXXW4GaVeO-112" vertex="1">
          <mxGeometry y="78" width="360" height="26" as="geometry" />
        </mxCell>
        <mxCell id="dSAkTDeeCPNXXW4GaVeO-117" value="+ method(type): type" style="text;html=1;strokeColor=none;fillColor=default;align=left;verticalAlign=top;spacingLeft=4;spacingRight=4;whiteSpace=wrap;overflow=hidden;rotatable=0;points=[[0,0.5],[1,0.5]];portConstraint=eastwest;" parent="dSAkTDeeCPNXXW4GaVeO-112" vertex="1">
          <mxGeometry y="104" width="360" height="26" as="geometry" />
        </mxCell>
        <mxCell id="dSAkTDeeCPNXXW4GaVeO-118" value="RelayBoard" style="swimlane;html=1;fontStyle=1;align=center;verticalAlign=top;childLayout=stackLayout;horizontal=1;startSize=20;horizontalStack=0;resizeParent=1;resizeLast=0;collapsible=1;marginBottom=0;swimlaneFillColor=#ffffff;rounded=0;shadow=0;comic=0;labelBackgroundColor=none;strokeWidth=1;fillColor=none;fontFamily=Verdana;fontSize=12" parent="dSAkTDeeCPNXXW4GaVeO-23" vertex="1">
          <mxGeometry x="1320" y="380" width="180" height="260" as="geometry">
            <mxRectangle x="1320" y="380" width="120" height="30" as="alternateBounds" />
          </mxGeometry>
        </mxCell>
        <mxCell id="dSAkTDeeCPNXXW4GaVeO-119" value="1 relay switch: physical" style="text;html=1;strokeColor=none;fillColor=default;align=left;verticalAlign=top;spacingLeft=4;spacingRight=4;whiteSpace=wrap;overflow=hidden;rotatable=0;points=[[0,0.5],[1,0.5]];portConstraint=eastwest;" parent="dSAkTDeeCPNXXW4GaVeO-118" vertex="1">
          <mxGeometry y="20" width="180" height="30" as="geometry" />
        </mxCell>
        <mxCell id="dSAkTDeeCPNXXW4GaVeO-120" value="2 relay switch: physical" style="text;html=1;strokeColor=none;fillColor=default;align=left;verticalAlign=top;spacingLeft=4;spacingRight=4;whiteSpace=wrap;overflow=hidden;rotatable=0;points=[[0,0.5],[1,0.5]];portConstraint=eastwest;" parent="dSAkTDeeCPNXXW4GaVeO-118" vertex="1">
          <mxGeometry y="50" width="180" height="30" as="geometry" />
        </mxCell>
        <mxCell id="dSAkTDeeCPNXXW4GaVeO-121" value="3 relay switch: physical" style="text;html=1;strokeColor=none;fillColor=default;align=left;verticalAlign=top;spacingLeft=4;spacingRight=4;whiteSpace=wrap;overflow=hidden;rotatable=0;points=[[0,0.5],[1,0.5]];portConstraint=eastwest;" parent="dSAkTDeeCPNXXW4GaVeO-118" vertex="1">
          <mxGeometry y="80" width="180" height="30" as="geometry" />
        </mxCell>
        <mxCell id="dSAkTDeeCPNXXW4GaVeO-122" value="4 relay switch: physical" style="text;html=1;strokeColor=none;fillColor=default;align=left;verticalAlign=top;spacingLeft=4;spacingRight=4;whiteSpace=wrap;overflow=hidden;rotatable=0;points=[[0,0.5],[1,0.5]];portConstraint=eastwest;" parent="dSAkTDeeCPNXXW4GaVeO-118" vertex="1">
          <mxGeometry y="110" width="180" height="30" as="geometry" />
        </mxCell>
        <mxCell id="dSAkTDeeCPNXXW4GaVeO-152" value="5&amp;nbsp;relay switch: physical" style="text;html=1;strokeColor=none;fillColor=default;align=left;verticalAlign=top;spacingLeft=4;spacingRight=4;whiteSpace=wrap;overflow=hidden;rotatable=0;points=[[0,0.5],[1,0.5]];portConstraint=eastwest;" parent="dSAkTDeeCPNXXW4GaVeO-118" vertex="1">
          <mxGeometry y="140" width="180" height="30" as="geometry" />
        </mxCell>
        <mxCell id="g-lxSQZetbMV3VEQ5jTI-13" value="6 relay switch: physical" style="text;html=1;strokeColor=none;fillColor=default;align=left;verticalAlign=top;spacingLeft=4;spacingRight=4;whiteSpace=wrap;overflow=hidden;rotatable=0;points=[[0,0.5],[1,0.5]];portConstraint=eastwest;" vertex="1" parent="dSAkTDeeCPNXXW4GaVeO-118">
          <mxGeometry y="170" width="180" height="30" as="geometry" />
        </mxCell>
        <mxCell id="g-lxSQZetbMV3VEQ5jTI-14" value="7&amp;nbsp;relay switch: physical" style="text;html=1;strokeColor=none;fillColor=default;align=left;verticalAlign=top;spacingLeft=4;spacingRight=4;whiteSpace=wrap;overflow=hidden;rotatable=0;points=[[0,0.5],[1,0.5]];portConstraint=eastwest;" vertex="1" parent="dSAkTDeeCPNXXW4GaVeO-118">
          <mxGeometry y="200" width="180" height="30" as="geometry" />
        </mxCell>
        <mxCell id="g-lxSQZetbMV3VEQ5jTI-15" value="8&amp;nbsp;relay switch: physical" style="text;html=1;strokeColor=none;fillColor=default;align=left;verticalAlign=top;spacingLeft=4;spacingRight=4;whiteSpace=wrap;overflow=hidden;rotatable=0;points=[[0,0.5],[1,0.5]];portConstraint=eastwest;" vertex="1" parent="dSAkTDeeCPNXXW4GaVeO-118">
          <mxGeometry y="230" width="180" height="30" as="geometry" />
        </mxCell>
        <mxCell id="g-lxSQZetbMV3VEQ5jTI-8" style="edgeStyle=orthogonalEdgeStyle;rounded=0;orthogonalLoop=1;jettySize=auto;html=1;entryX=1;entryY=0.5;entryDx=0;entryDy=0;" edge="1" parent="dSAkTDeeCPNXXW4GaVeO-23" source="dSAkTDeeCPNXXW4GaVeO-125" target="dSAkTDeeCPNXXW4GaVeO-119">
          <mxGeometry relative="1" as="geometry" />
        </mxCell>
        <mxCell id="dSAkTDeeCPNXXW4GaVeO-125" value="CameraLight" style="html=1;whiteSpace=wrap;" parent="dSAkTDeeCPNXXW4GaVeO-23" vertex="1">
          <mxGeometry x="1620" y="400" width="100" height="30" as="geometry" />
        </mxCell>
        <mxCell id="g-lxSQZetbMV3VEQ5jTI-10" style="edgeStyle=orthogonalEdgeStyle;rounded=0;orthogonalLoop=1;jettySize=auto;html=1;" edge="1" parent="dSAkTDeeCPNXXW4GaVeO-23" source="dSAkTDeeCPNXXW4GaVeO-127" target="dSAkTDeeCPNXXW4GaVeO-120">
          <mxGeometry relative="1" as="geometry" />
        </mxCell>
        <mxCell id="dSAkTDeeCPNXXW4GaVeO-127" value="WaterPump" style="html=1;whiteSpace=wrap;" parent="dSAkTDeeCPNXXW4GaVeO-23" vertex="1">
          <mxGeometry x="1620" y="430" width="100" height="30" as="geometry" />
        </mxCell>
        <mxCell id="dSAkTDeeCPNXXW4GaVeO-128" style="edgeStyle=orthogonalEdgeStyle;rounded=0;orthogonalLoop=1;jettySize=auto;html=1;entryX=1;entryY=0.5;entryDx=0;entryDy=0;" parent="dSAkTDeeCPNXXW4GaVeO-23" source="dSAkTDeeCPNXXW4GaVeO-129" target="dSAkTDeeCPNXXW4GaVeO-121" edge="1">
          <mxGeometry relative="1" as="geometry" />
        </mxCell>
        <mxCell id="dSAkTDeeCPNXXW4GaVeO-129" value="FertilizerPump" style="html=1;whiteSpace=wrap;" parent="dSAkTDeeCPNXXW4GaVeO-23" vertex="1">
          <mxGeometry x="1620" y="460" width="100" height="30" as="geometry" />
        </mxCell>
        <mxCell id="dSAkTDeeCPNXXW4GaVeO-130" style="edgeStyle=orthogonalEdgeStyle;rounded=0;orthogonalLoop=1;jettySize=auto;html=1;entryX=1;entryY=0.5;entryDx=0;entryDy=0;" parent="dSAkTDeeCPNXXW4GaVeO-23" source="dSAkTDeeCPNXXW4GaVeO-131" target="dSAkTDeeCPNXXW4GaVeO-122" edge="1">
          <mxGeometry relative="1" as="geometry" />
        </mxCell>
        <mxCell id="dSAkTDeeCPNXXW4GaVeO-131" value="Ligthning" style="html=1;whiteSpace=wrap;" parent="dSAkTDeeCPNXXW4GaVeO-23" vertex="1">
          <mxGeometry x="1620" y="490" width="100" height="30" as="geometry" />
        </mxCell>
        <mxCell id="dSAkTDeeCPNXXW4GaVeO-132" value="FloraLightModule" style="swimlane;html=1;fontStyle=1;align=center;verticalAlign=top;childLayout=stackLayout;horizontal=1;startSize=26;horizontalStack=0;resizeParent=1;resizeLast=0;collapsible=1;marginBottom=0;swimlaneFillColor=#ffffff;rounded=0;shadow=0;comic=0;labelBackgroundColor=none;strokeWidth=1;fillColor=none;fontFamily=Verdana;fontSize=12" parent="dSAkTDeeCPNXXW4GaVeO-23" vertex="1">
          <mxGeometry x="1760" y="110" width="360" height="208" as="geometry" />
        </mxCell>
        <mxCell id="dSAkTDeeCPNXXW4GaVeO-133" value="+ field: int" style="text;html=1;strokeColor=none;fillColor=default;align=left;verticalAlign=top;spacingLeft=4;spacingRight=4;whiteSpace=wrap;overflow=hidden;rotatable=0;points=[[0,0.5],[1,0.5]];portConstraint=eastwest;" parent="dSAkTDeeCPNXXW4GaVeO-132" vertex="1">
          <mxGeometry y="26" width="360" height="26" as="geometry" />
        </mxCell>
        <mxCell id="dSAkTDeeCPNXXW4GaVeO-134" value="+ field: int" style="text;html=1;strokeColor=none;fillColor=default;align=left;verticalAlign=top;spacingLeft=4;spacingRight=4;whiteSpace=wrap;overflow=hidden;rotatable=0;points=[[0,0.5],[1,0.5]];portConstraint=eastwest;" parent="dSAkTDeeCPNXXW4GaVeO-132" vertex="1">
          <mxGeometry y="52" width="360" height="26" as="geometry" />
        </mxCell>
        <mxCell id="dSAkTDeeCPNXXW4GaVeO-135" value="+ method(type): int" style="text;html=1;strokeColor=none;fillColor=default;align=left;verticalAlign=top;spacingLeft=4;spacingRight=4;whiteSpace=wrap;overflow=hidden;rotatable=0;points=[[0,0.5],[1,0.5]];portConstraint=eastwest;" parent="dSAkTDeeCPNXXW4GaVeO-132" vertex="1">
          <mxGeometry y="78" width="360" height="26" as="geometry" />
        </mxCell>
        <mxCell id="dSAkTDeeCPNXXW4GaVeO-136" value="+ method(type): int" style="text;html=1;strokeColor=none;fillColor=default;align=left;verticalAlign=top;spacingLeft=4;spacingRight=4;whiteSpace=wrap;overflow=hidden;rotatable=0;points=[[0,0.5],[1,0.5]];portConstraint=eastwest;" parent="dSAkTDeeCPNXXW4GaVeO-132" vertex="1">
          <mxGeometry y="104" width="360" height="26" as="geometry" />
        </mxCell>
        <mxCell id="dSAkTDeeCPNXXW4GaVeO-137" value="+ method(type): type" style="text;html=1;strokeColor=none;fillColor=default;align=left;verticalAlign=top;spacingLeft=4;spacingRight=4;whiteSpace=wrap;overflow=hidden;rotatable=0;points=[[0,0.5],[1,0.5]];portConstraint=eastwest;" parent="dSAkTDeeCPNXXW4GaVeO-132" vertex="1">
          <mxGeometry y="130" width="360" height="26" as="geometry" />
        </mxCell>
        <mxCell id="dSAkTDeeCPNXXW4GaVeO-138" value="+ field: int" style="text;html=1;strokeColor=none;fillColor=default;align=left;verticalAlign=top;spacingLeft=4;spacingRight=4;whiteSpace=wrap;overflow=hidden;rotatable=0;points=[[0,0.5],[1,0.5]];portConstraint=eastwest;" parent="dSAkTDeeCPNXXW4GaVeO-132" vertex="1">
          <mxGeometry y="156" width="360" height="26" as="geometry" />
        </mxCell>
        <mxCell id="dSAkTDeeCPNXXW4GaVeO-139" value="+ method(type): type" style="text;html=1;strokeColor=none;fillColor=default;align=left;verticalAlign=top;spacingLeft=4;spacingRight=4;whiteSpace=wrap;overflow=hidden;rotatable=0;points=[[0,0.5],[1,0.5]];portConstraint=eastwest;" parent="dSAkTDeeCPNXXW4GaVeO-132" vertex="1">
          <mxGeometry y="182" width="360" height="26" as="geometry" />
        </mxCell>
        <mxCell id="dSAkTDeeCPNXXW4GaVeO-140" value="SoilMoisture" style="html=1;whiteSpace=wrap;" parent="dSAkTDeeCPNXXW4GaVeO-23" vertex="1">
          <mxGeometry x="1400" y="169" width="100" height="19" as="geometry" />
        </mxCell>
        <mxCell id="dSAkTDeeCPNXXW4GaVeO-141" value="Humidity" style="html=1;whiteSpace=wrap;" parent="dSAkTDeeCPNXXW4GaVeO-23" vertex="1">
          <mxGeometry x="1400" y="199.5" width="100" height="19" as="geometry" />
        </mxCell>
        <mxCell id="dSAkTDeeCPNXXW4GaVeO-142" value="CarbonDioxide" style="html=1;whiteSpace=wrap;" parent="dSAkTDeeCPNXXW4GaVeO-23" vertex="1">
          <mxGeometry x="1400" y="230" width="100" height="20" as="geometry" />
        </mxCell>
        <mxCell id="dSAkTDeeCPNXXW4GaVeO-143" value="PhLevel" style="html=1;whiteSpace=wrap;" parent="dSAkTDeeCPNXXW4GaVeO-23" vertex="1">
          <mxGeometry x="1400" y="259" width="100" height="20" as="geometry" />
        </mxCell>
        <mxCell id="dSAkTDeeCPNXXW4GaVeO-144" value="FloraFrontEndApplication" style="swimlane;html=1;fontStyle=1;align=center;verticalAlign=top;childLayout=stackLayout;horizontal=1;startSize=26;horizontalStack=0;resizeParent=1;resizeLast=0;collapsible=1;marginBottom=0;swimlaneFillColor=#ffffff;rounded=0;shadow=0;comic=0;labelBackgroundColor=none;strokeWidth=1;fillColor=#0050ef;fontFamily=Verdana;fontSize=12;fontColor=#ffffff;strokeColor=#001DBC;" parent="dSAkTDeeCPNXXW4GaVeO-23" vertex="1">
          <mxGeometry x="-920" y="120" width="360" height="164" as="geometry" />
        </mxCell>
        <mxCell id="dSAkTDeeCPNXXW4GaVeO-145" value="+ field: type" style="text;html=1;strokeColor=none;fillColor=default;align=left;verticalAlign=top;spacingLeft=4;spacingRight=4;whiteSpace=wrap;overflow=hidden;rotatable=0;points=[[0,0.5],[1,0.5]];portConstraint=eastwest;" parent="dSAkTDeeCPNXXW4GaVeO-144" vertex="1">
          <mxGeometry y="26" width="360" height="26" as="geometry" />
        </mxCell>
        <mxCell id="dSAkTDeeCPNXXW4GaVeO-146" value="+ field: type" style="text;html=1;strokeColor=none;fillColor=default;align=left;verticalAlign=top;spacingLeft=4;spacingRight=4;whiteSpace=wrap;overflow=hidden;rotatable=0;points=[[0,0.5],[1,0.5]];portConstraint=eastwest;" parent="dSAkTDeeCPNXXW4GaVeO-144" vertex="1">
          <mxGeometry y="52" width="360" height="26" as="geometry" />
        </mxCell>
        <mxCell id="dSAkTDeeCPNXXW4GaVeO-147" value="+ method(type): type" style="text;html=1;strokeColor=none;fillColor=default;align=left;verticalAlign=top;spacingLeft=4;spacingRight=4;whiteSpace=wrap;overflow=hidden;rotatable=0;points=[[0,0.5],[1,0.5]];portConstraint=eastwest;" parent="dSAkTDeeCPNXXW4GaVeO-144" vertex="1">
          <mxGeometry y="78" width="360" height="26" as="geometry" />
        </mxCell>
        <mxCell id="dSAkTDeeCPNXXW4GaVeO-148" value="+ method(type): type" style="text;html=1;strokeColor=none;fillColor=default;align=left;verticalAlign=top;spacingLeft=4;spacingRight=4;whiteSpace=wrap;overflow=hidden;rotatable=0;points=[[0,0.5],[1,0.5]];portConstraint=eastwest;" parent="dSAkTDeeCPNXXW4GaVeO-144" vertex="1">
          <mxGeometry y="104" width="360" height="26" as="geometry" />
        </mxCell>
        <mxCell id="dSAkTDeeCPNXXW4GaVeO-149" value="+ method(type): type" style="text;html=1;strokeColor=none;fillColor=default;align=left;verticalAlign=top;spacingLeft=4;spacingRight=4;whiteSpace=wrap;overflow=hidden;rotatable=0;points=[[0,0.5],[1,0.5]];portConstraint=eastwest;" parent="dSAkTDeeCPNXXW4GaVeO-144" vertex="1">
          <mxGeometry y="130" width="360" height="26" as="geometry" />
        </mxCell>
        <mxCell id="dSAkTDeeCPNXXW4GaVeO-153" style="edgeStyle=orthogonalEdgeStyle;rounded=0;orthogonalLoop=1;jettySize=auto;html=1;fontFamily=Helvetica;fontSize=12;fontColor=default;" parent="dSAkTDeeCPNXXW4GaVeO-23" source="dSAkTDeeCPNXXW4GaVeO-151" target="dSAkTDeeCPNXXW4GaVeO-152" edge="1">
          <mxGeometry relative="1" as="geometry" />
        </mxCell>
        <mxCell id="dSAkTDeeCPNXXW4GaVeO-151" value="Ventiliacija&lt;br&gt;" style="html=1;whiteSpace=wrap;" parent="dSAkTDeeCPNXXW4GaVeO-23" vertex="1">
          <mxGeometry x="1620" y="520" width="100" height="30" as="geometry" />
        </mxCell>
        <mxCell id="dSAkTDeeCPNXXW4GaVeO-158" value="Woodpecker 2.8" style="html=1;whiteSpace=wrap;strokeWidth=4;movable=1;resizable=1;rotatable=1;deletable=1;editable=1;locked=0;connectable=1;" parent="dSAkTDeeCPNXXW4GaVeO-23" vertex="1">
          <mxGeometry x="360" y="710" width="360" height="19" as="geometry" />
        </mxCell>
        <mxCell id="g-lxSQZetbMV3VEQ5jTI-38" value="Analytics" style="swimlane;html=1;fontStyle=1;align=center;verticalAlign=top;childLayout=stackLayout;horizontal=1;startSize=31;horizontalStack=0;resizeParent=1;resizeLast=0;collapsible=1;marginBottom=0;swimlaneFillColor=#ffffff;rounded=0;shadow=0;comic=0;labelBackgroundColor=none;strokeWidth=1;fillColor=#008a00;fontFamily=Verdana;fontSize=12;fontColor=#ffffff;strokeColor=#005700;" vertex="1" parent="dSAkTDeeCPNXXW4GaVeO-23">
          <mxGeometry x="-270" y="450" width="190" height="150" as="geometry">
            <mxRectangle x="-420" y="290" width="100" height="31" as="alternateBounds" />
          </mxGeometry>
        </mxCell>
        <mxCell id="g-lxSQZetbMV3VEQ5jTI-39" value="+ field: type" style="text;html=1;strokeColor=none;fillColor=default;align=left;verticalAlign=top;spacingLeft=4;spacingRight=4;whiteSpace=wrap;overflow=hidden;rotatable=0;points=[[0,0.5],[1,0.5]];portConstraint=eastwest;" vertex="1" parent="g-lxSQZetbMV3VEQ5jTI-38">
          <mxGeometry y="31" width="190" height="29" as="geometry" />
        </mxCell>
        <mxCell id="g-lxSQZetbMV3VEQ5jTI-40" value="+ field: type" style="text;html=1;strokeColor=none;fillColor=default;align=left;verticalAlign=top;spacingLeft=4;spacingRight=4;whiteSpace=wrap;overflow=hidden;rotatable=0;points=[[0,0.5],[1,0.5]];portConstraint=eastwest;" vertex="1" parent="g-lxSQZetbMV3VEQ5jTI-38">
          <mxGeometry y="60" width="190" height="30" as="geometry" />
        </mxCell>
        <mxCell id="g-lxSQZetbMV3VEQ5jTI-41" value="+ method(type): type" style="text;html=1;strokeColor=none;fillColor=default;align=left;verticalAlign=top;spacingLeft=4;spacingRight=4;whiteSpace=wrap;overflow=hidden;rotatable=0;points=[[0,0.5],[1,0.5]];portConstraint=eastwest;" vertex="1" parent="g-lxSQZetbMV3VEQ5jTI-38">
          <mxGeometry y="90" width="190" height="30" as="geometry" />
        </mxCell>
        <mxCell id="g-lxSQZetbMV3VEQ5jTI-42" value="+ method(type): type" style="text;html=1;strokeColor=none;fillColor=default;align=left;verticalAlign=top;spacingLeft=4;spacingRight=4;whiteSpace=wrap;overflow=hidden;rotatable=0;points=[[0,0.5],[1,0.5]];portConstraint=eastwest;" vertex="1" parent="g-lxSQZetbMV3VEQ5jTI-38">
          <mxGeometry y="120" width="190" height="30" as="geometry" />
        </mxCell>
        <mxCell id="g-lxSQZetbMV3VEQ5jTI-44" value="Monitoring" style="swimlane;html=1;fontStyle=1;align=center;verticalAlign=top;childLayout=stackLayout;horizontal=1;startSize=31;horizontalStack=0;resizeParent=1;resizeLast=0;collapsible=1;marginBottom=0;swimlaneFillColor=#ffffff;rounded=0;shadow=0;comic=0;labelBackgroundColor=none;strokeWidth=1;fillColor=#008a00;fontFamily=Verdana;fontSize=12;fontColor=#ffffff;strokeColor=#005700;" vertex="1" parent="dSAkTDeeCPNXXW4GaVeO-23">
          <mxGeometry x="-440" y="600" width="170" height="150" as="geometry">
            <mxRectangle x="-420" y="290" width="100" height="31" as="alternateBounds" />
          </mxGeometry>
        </mxCell>
        <mxCell id="g-lxSQZetbMV3VEQ5jTI-45" value="+ field: type" style="text;html=1;strokeColor=none;fillColor=default;align=left;verticalAlign=top;spacingLeft=4;spacingRight=4;whiteSpace=wrap;overflow=hidden;rotatable=0;points=[[0,0.5],[1,0.5]];portConstraint=eastwest;" vertex="1" parent="g-lxSQZetbMV3VEQ5jTI-44">
          <mxGeometry y="31" width="170" height="29" as="geometry" />
        </mxCell>
        <mxCell id="g-lxSQZetbMV3VEQ5jTI-46" value="+ field: type" style="text;html=1;strokeColor=none;fillColor=default;align=left;verticalAlign=top;spacingLeft=4;spacingRight=4;whiteSpace=wrap;overflow=hidden;rotatable=0;points=[[0,0.5],[1,0.5]];portConstraint=eastwest;" vertex="1" parent="g-lxSQZetbMV3VEQ5jTI-44">
          <mxGeometry y="60" width="170" height="30" as="geometry" />
        </mxCell>
        <mxCell id="g-lxSQZetbMV3VEQ5jTI-47" value="+ method(type): type" style="text;html=1;strokeColor=none;fillColor=default;align=left;verticalAlign=top;spacingLeft=4;spacingRight=4;whiteSpace=wrap;overflow=hidden;rotatable=0;points=[[0,0.5],[1,0.5]];portConstraint=eastwest;" vertex="1" parent="g-lxSQZetbMV3VEQ5jTI-44">
          <mxGeometry y="90" width="170" height="30" as="geometry" />
        </mxCell>
        <mxCell id="g-lxSQZetbMV3VEQ5jTI-48" value="+ method(type): type" style="text;html=1;strokeColor=none;fillColor=default;align=left;verticalAlign=top;spacingLeft=4;spacingRight=4;whiteSpace=wrap;overflow=hidden;rotatable=0;points=[[0,0.5],[1,0.5]];portConstraint=eastwest;" vertex="1" parent="g-lxSQZetbMV3VEQ5jTI-44">
          <mxGeometry y="120" width="170" height="30" as="geometry" />
        </mxCell>
        <mxCell id="g-lxSQZetbMV3VEQ5jTI-50" value="Controller" style="swimlane;html=1;fontStyle=1;align=center;verticalAlign=top;childLayout=stackLayout;horizontal=1;startSize=31;horizontalStack=0;resizeParent=1;resizeLast=0;collapsible=1;marginBottom=0;swimlaneFillColor=#ffffff;rounded=0;shadow=0;comic=0;labelBackgroundColor=none;strokeWidth=1;fillColor=#008a00;fontFamily=Verdana;fontSize=12;fontColor=#ffffff;strokeColor=#005700;" vertex="1" parent="dSAkTDeeCPNXXW4GaVeO-23">
          <mxGeometry x="-270" y="600" width="190" height="150" as="geometry">
            <mxRectangle x="-420" y="290" width="100" height="31" as="alternateBounds" />
          </mxGeometry>
        </mxCell>
        <mxCell id="g-lxSQZetbMV3VEQ5jTI-51" value="+ field: type" style="text;html=1;strokeColor=none;fillColor=default;align=left;verticalAlign=top;spacingLeft=4;spacingRight=4;whiteSpace=wrap;overflow=hidden;rotatable=0;points=[[0,0.5],[1,0.5]];portConstraint=eastwest;" vertex="1" parent="g-lxSQZetbMV3VEQ5jTI-50">
          <mxGeometry y="31" width="190" height="29" as="geometry" />
        </mxCell>
        <mxCell id="g-lxSQZetbMV3VEQ5jTI-52" value="+ field: type" style="text;html=1;strokeColor=none;fillColor=default;align=left;verticalAlign=top;spacingLeft=4;spacingRight=4;whiteSpace=wrap;overflow=hidden;rotatable=0;points=[[0,0.5],[1,0.5]];portConstraint=eastwest;" vertex="1" parent="g-lxSQZetbMV3VEQ5jTI-50">
          <mxGeometry y="60" width="190" height="30" as="geometry" />
        </mxCell>
        <mxCell id="g-lxSQZetbMV3VEQ5jTI-53" value="+ method(type): type" style="text;html=1;strokeColor=none;fillColor=default;align=left;verticalAlign=top;spacingLeft=4;spacingRight=4;whiteSpace=wrap;overflow=hidden;rotatable=0;points=[[0,0.5],[1,0.5]];portConstraint=eastwest;" vertex="1" parent="g-lxSQZetbMV3VEQ5jTI-50">
          <mxGeometry y="90" width="190" height="30" as="geometry" />
        </mxCell>
        <mxCell id="g-lxSQZetbMV3VEQ5jTI-54" value="+ method(type): type" style="text;html=1;strokeColor=none;fillColor=default;align=left;verticalAlign=top;spacingLeft=4;spacingRight=4;whiteSpace=wrap;overflow=hidden;rotatable=0;points=[[0,0.5],[1,0.5]];portConstraint=eastwest;" vertex="1" parent="g-lxSQZetbMV3VEQ5jTI-50">
          <mxGeometry y="120" width="190" height="30" as="geometry" />
        </mxCell>
        <mxCell id="g-lxSQZetbMV3VEQ5jTI-78" value="FLORA:AI" style="swimlane;html=1;fontStyle=1;align=center;verticalAlign=top;childLayout=stackLayout;horizontal=1;startSize=31;horizontalStack=0;resizeParent=1;resizeLast=0;collapsible=1;marginBottom=0;swimlaneFillColor=#ffffff;rounded=0;shadow=0;comic=0;labelBackgroundColor=none;strokeWidth=1;fillColor=#008a00;fontFamily=Verdana;fontSize=12;fontColor=#ffffff;strokeColor=#005700;" vertex="1" parent="dSAkTDeeCPNXXW4GaVeO-23">
          <mxGeometry x="-440" y="360" width="360" height="90" as="geometry">
            <mxRectangle x="-420" y="290" width="100" height="31" as="alternateBounds" />
          </mxGeometry>
        </mxCell>
        <mxCell id="g-lxSQZetbMV3VEQ5jTI-79" value="+ field: type" style="text;html=1;strokeColor=none;fillColor=default;align=left;verticalAlign=top;spacingLeft=4;spacingRight=4;whiteSpace=wrap;overflow=hidden;rotatable=0;points=[[0,0.5],[1,0.5]];portConstraint=eastwest;" vertex="1" parent="g-lxSQZetbMV3VEQ5jTI-78">
          <mxGeometry y="31" width="360" height="29" as="geometry" />
        </mxCell>
        <mxCell id="g-lxSQZetbMV3VEQ5jTI-80" value="+ field: type" style="text;html=1;strokeColor=none;fillColor=default;align=left;verticalAlign=top;spacingLeft=4;spacingRight=4;whiteSpace=wrap;overflow=hidden;rotatable=0;points=[[0,0.5],[1,0.5]];portConstraint=eastwest;" vertex="1" parent="g-lxSQZetbMV3VEQ5jTI-78">
          <mxGeometry y="60" width="360" height="30" as="geometry" />
        </mxCell>
        <mxCell id="g-lxSQZetbMV3VEQ5jTI-99" value="REST API" style="swimlane;html=1;fontStyle=1;align=center;verticalAlign=top;childLayout=stackLayout;horizontal=1;startSize=31;horizontalStack=0;resizeParent=1;resizeLast=0;collapsible=1;marginBottom=0;swimlaneFillColor=#ffffff;rounded=0;shadow=0;comic=0;labelBackgroundColor=none;strokeWidth=1;fillColor=#008a00;fontFamily=Verdana;fontSize=12;fontColor=#ffffff;strokeColor=#005700;" vertex="1" parent="dSAkTDeeCPNXXW4GaVeO-23">
          <mxGeometry x="-440" y="770" width="360" height="150" as="geometry">
            <mxRectangle x="-420" y="290" width="100" height="31" as="alternateBounds" />
          </mxGeometry>
        </mxCell>
        <mxCell id="g-lxSQZetbMV3VEQ5jTI-100" value="+ field: type" style="text;html=1;strokeColor=none;fillColor=default;align=left;verticalAlign=top;spacingLeft=4;spacingRight=4;whiteSpace=wrap;overflow=hidden;rotatable=0;points=[[0,0.5],[1,0.5]];portConstraint=eastwest;" vertex="1" parent="g-lxSQZetbMV3VEQ5jTI-99">
          <mxGeometry y="31" width="360" height="29" as="geometry" />
        </mxCell>
        <mxCell id="g-lxSQZetbMV3VEQ5jTI-101" value="+ field: type" style="text;html=1;strokeColor=none;fillColor=default;align=left;verticalAlign=top;spacingLeft=4;spacingRight=4;whiteSpace=wrap;overflow=hidden;rotatable=0;points=[[0,0.5],[1,0.5]];portConstraint=eastwest;" vertex="1" parent="g-lxSQZetbMV3VEQ5jTI-99">
          <mxGeometry y="60" width="360" height="30" as="geometry" />
        </mxCell>
        <mxCell id="g-lxSQZetbMV3VEQ5jTI-102" value="+ method(type): type" style="text;html=1;strokeColor=none;fillColor=default;align=left;verticalAlign=top;spacingLeft=4;spacingRight=4;whiteSpace=wrap;overflow=hidden;rotatable=0;points=[[0,0.5],[1,0.5]];portConstraint=eastwest;" vertex="1" parent="g-lxSQZetbMV3VEQ5jTI-99">
          <mxGeometry y="90" width="360" height="30" as="geometry" />
        </mxCell>
        <mxCell id="g-lxSQZetbMV3VEQ5jTI-103" value="+ method(type): type" style="text;html=1;strokeColor=none;fillColor=default;align=left;verticalAlign=top;spacingLeft=4;spacingRight=4;whiteSpace=wrap;overflow=hidden;rotatable=0;points=[[0,0.5],[1,0.5]];portConstraint=eastwest;" vertex="1" parent="g-lxSQZetbMV3VEQ5jTI-99">
          <mxGeometry y="120" width="360" height="30" as="geometry" />
        </mxCell>
        <mxCell id="g-lxSQZetbMV3VEQ5jTI-114" value="POSE ENCODER" style="swimlane;html=1;fontStyle=1;align=center;verticalAlign=top;childLayout=stackLayout;horizontal=1;startSize=30;horizontalStack=0;resizeParent=1;resizeLast=0;collapsible=1;marginBottom=0;swimlaneFillColor=#ffffff;rounded=0;shadow=0;comic=0;labelBackgroundColor=none;strokeWidth=1;fillColor=#008a00;fontFamily=Verdana;fontSize=12;fontColor=#ffffff;strokeColor=#005700;" vertex="1" parent="dSAkTDeeCPNXXW4GaVeO-23">
          <mxGeometry x="360" y="910" width="360" height="90" as="geometry" />
        </mxCell>
        <mxCell id="g-lxSQZetbMV3VEQ5jTI-115" value="+ field: type" style="text;html=1;strokeColor=none;fillColor=default;align=left;verticalAlign=top;spacingLeft=4;spacingRight=4;whiteSpace=wrap;overflow=hidden;rotatable=0;points=[[0,0.5],[1,0.5]];portConstraint=eastwest;" vertex="1" parent="g-lxSQZetbMV3VEQ5jTI-114">
          <mxGeometry y="30" width="360" height="30" as="geometry" />
        </mxCell>
        <mxCell id="g-lxSQZetbMV3VEQ5jTI-116" value="+ field: type" style="text;html=1;strokeColor=none;fillColor=default;align=left;verticalAlign=top;spacingLeft=4;spacingRight=4;whiteSpace=wrap;overflow=hidden;rotatable=0;points=[[0,0.5],[1,0.5]];portConstraint=eastwest;" vertex="1" parent="g-lxSQZetbMV3VEQ5jTI-114">
          <mxGeometry y="60" width="360" height="30" as="geometry" />
        </mxCell>
      </root>
    </mxGraphModel>
  </diagram>
</mxfile>
